/* XPM */
static char *result[] = {
/* columns rows colors chars-per-pixel */
"50 50 234 2 ",
"   c #010101",
".  c #0B0604",
"X  c #030904",
"o  c #0A0C04",
"O  c #04090E",
"+  c #000C0C",
"@  c #160C09",
"#  c #0C180D",
"$  c #17150B",
"%  c #001515",
"&  c #111916",
"*  c #2B190F",
"=  c #261710",
"-  c #16230A",
";  c #16290C",
":  c #1B2D0C",
">  c #1E340D",
",  c #0E261D",
"<  c #112716",
"1  c #1A3516",
"2  c #213A0E",
"3  c #282A11",
"4  c #352918",
"5  c #243A13",
"6  c #2B3C14",
"7  c #363717",
"8  c #021524",
"9  c #031F3E",
"0  c #072926",
"q  c #192822",
"w  c #0A362E",
"e  c #13352E",
"r  c #053D39",
"t  c #143A35",
"y  c #2C3C25",
"u  c #352B34",
"i  c #273C3D",
"p  c #452719",
"a  c #532E1E",
"s  c #52361F",
"d  c #593527",
"f  c #493535",
"g  c #683826",
"h  c #773B2A",
"j  c #26460F",
"k  c #284613",
"l  c #2B4C15",
"z  c #2E4E19",
"x  c #364719",
"c  c #2D5214",
"v  c #2A5614",
"b  c #335319",
"n  c #355A19",
"m  c #36661B",
"M  c #3A641B",
"N  c #3C6C1B",
"B  c #3E711C",
"V  c #3E7A1C",
"C  c #184E31",
"Z  c #274326",
"A  c #2C512D",
"S  c #02603D",
"D  c #316D33",
"F  c #4D451E",
"G  c #416A1E",
"H  c #41731D",
"J  c #437D1E",
"K  c #4A4922",
"L  c #594E2A",
"P  c #445439",
"I  c #595937",
"U  c #73452B",
"Y  c #74562D",
"T  c #6B4D33",
"R  c #426A28",
"E  c #5C652D",
"W  c #447421",
"Q  c #497722",
"!  c #457E21",
"~  c #4A7C23",
"^  c #6A6929",
"/  c #786F2D",
"(  c #646330",
")  c #757634",
"_  c #082A4E",
"`  c #083D48",
"'  c #07385D",
"]  c #0A3A66",
"[  c #074A47",
"{  c #06544D",
"}  c #124A52",
"|  c #095A56",
" . c #234941",
".. c #314D4B",
"X. c #0F6F52",
"o. c #306343",
"O. c #0F446B",
"+. c #0A5467",
"@. c #074674",
"#. c #096968",
"$. c #08736C",
"%. c #12706F",
"&. c #2D7070",
"*. c #4B5251",
"=. c #575954",
"-. c #56694A",
";. c #656858",
":. c #464B63",
">. c #5E5F64",
",. c #696B66",
"<. c #70736E",
"1. c #864730",
"2. c #875A35",
"3. c #995537",
"4. c #AA5C3D",
"5. c #926B38",
"6. c #897C38",
"7. c #A6603C",
"8. c #8C6A58",
"9. c #A96A4A",
"0. c #B56542",
"q. c #A17243",
"w. c #917265",
"e. c #C36C46",
"r. c #C27949",
"t. c #1B833A",
"y. c #298138",
"u. c #45801F",
"i. c #468021",
"p. c #4B8423",
"a. c #4F8824",
"s. c #4E8528",
"d. c #4F8829",
"f. c #508725",
"g. c #528B26",
"h. c #588F27",
"j. c #548D29",
"k. c #588F2D",
"l. c #579026",
"z. c #569129",
"x. c #5A9328",
"c. c #5A932B",
"v. c #5A9130",
"b. c #60992E",
"n. c #649D30",
"m. c #10C13D",
"M. c #0B8078",
"N. c #238865",
"B. c #798F4F",
"V. c #639B5A",
"C. c #71AC69",
"Z. c #0EED54",
"A. c #0FF66C",
"S. c #51E766",
"D. c #8A933E",
"F. c #919136",
"G. c #8D8C49",
"H. c #969746",
"J. c #B1894C",
"K. c #91A653",
"L. c #ADA246",
"P. c #AEB151",
"I. c #949166",
"U. c #98BD69",
"Y. c #82A876",
"T. c #ABAD6B",
"R. c #C68B4A",
"E. c #CB8E52",
"W. c #CC9B50",
"Q. c #CFA24D",
"!. c #C8A856",
"~. c #D0B253",
"^. c #DBB660",
"/. c #92C365",
"(. c #AFCE77",
"). c #D3CA56",
"_. c #E8CD69",
"`. c #E7D569",
"'. c #EDEE6A",
"]. c #F4ED70",
"[. c #094B88",
"{. c #09508D",
"}. c #0D6F89",
"|. c #357793",
" X c #1271A9",
".X c #127FB1",
"XX c #2078AA",
"oX c #445F8B",
"OX c #476E8C",
"+X c #108E8C",
"@X c #0A9396",
"#X c #328D86",
"$X c #0BA89C",
"%X c #16A39A",
"&X c #128CB1",
"*X c #1696BD",
"=X c #2886AC",
"-X c #0DAAAD",
";X c #25A8BB",
":X c #37BBB5",
">X c #6A8D88",
",X c #5FAA9D",
"<X c #69A090",
"1X c #408DA4",
"2X c #42A1A6",
"3X c #42B4B1",
"4X c #0CF986",
"5X c #0CF398",
"6X c #0ECEB4",
"7X c #35CDBF",
"8X c #0EF0B8",
"9X c #5CC39D",
"0X c #4AC6BF",
"qX c #66FFA6",
"wX c #139AC1",
"eX c #14AEC7",
"rX c #0FB3C8",
"tX c #13CDCE",
"yX c #0EE6D0",
"uX c #25E6DC",
"iX c #31F0D0",
"pX c #57CCC5",
"aX c #6BD3CC",
"sX c #68FFF7",
"dX c #8B9392",
"fX c #91BBB9",
"gX c #C1BCBC",
"hX c #A9C39E",
"jX c #8CE49C",
"kX c #85CAC7",
"lX c #B2D0CE",
"zX c #94F7F1",
"xX c #A1E9E3",
"cX c #C9CFC6",
/* pixels */
"h.c.c.p.x.a.g.l.i.a.a.x.x.p.x.g.a.l.u.f.u.c.c.p.l.l.a.l.p.a.u.x.c.a.g.l.a.l.a.p.p.l.x.z.p.c.a.g.f.u.",
"g.a.x.u.g.f.h.a.u.i.g.g.l.a.H a.h.a.u.u.g.f.x.l.p.a.h.a.p.J g.g.g.l.p.g.g.f.p.J a.g.g.l.p.g.a.h.a.u.",
"p.u.a.l.a.g.a.J J h.g.u.p.~ X.D p.! J a.c.u.u.l.a.p.g.i.J i.x.u.u.l.a.p.h.p.i.J c.u.u.g.g.a.d.p.u.V ",
"z.a.u.g.f.J ! j.u.x.x.h.m X.tX%XA a.p.h.b.j.u.g.l.u.J j.a.a.n.x.u.a.g.p.J p.g.i.n.l.p.p.g.p.u.p.j.J ",
"c.p.p.i.h.g.! p.u.b.l.H X.yXqXiX$XA H c.g.k.! p.p.z.i.p.! c.g.k.! p.p.z.p.p.! g.l.c.! p.i.z.p.p.i.p.",
"v.i.k.s.z.J V p.x.u.W %.yX4XA.A.8X$XD p.j.a.d.j.l.a.V ! z.a.d.j.p.k.g.g.V J j.g.d.c.p.c.a.z.B ! a.z.",
"p.! a.p.p.i.~ z.u.M ; 6X4XA.8X5XA.8XX.j s.i.p.p.p.! ! d.d.i.s.i.p.p.p.! ! a.j.p.p.p.i.a.p.! ! p.z.a.",
"i.s.j.d.j.p.p.p.N E K C.Z.5X@X6XZ.S.A ^ b p.a.d.j.a.p.a.i.c.z.p.s.d.j.j.! a.! j.c.p.s.d.j.j.! a.! p.",
"d.i.c.d.g.g.g.i.n ) ( A m.4X6X8XZ.y.7 H.x ~ g.j.s.j.a.p.i.g.j.p.a.k.p.g.a.a.i.g.k.p.p.c.p.g.a.a.! a.",
"a.p.g.a.a.g.g.a.M ) L.=.o.m.4XZ.t.=.;.P.l ! f.a.g.p.l.a.g.x.z.p.a.g.j.p.h.a.a.l.j.a.p.g.g.p.l.a.a.c.",
"l.c.z.p.x.a.g.l.n ) '.=.OX-.V.D ,.=.P.).k c.x.a.c.g.a.l.p.a.a.z.z.a.g.h.a.l.a.a.p.j.x.j.g.j.a.h.g.a.",
"g.a.c.p.f.a.l.a.v ^ ].P.I Y ) 2.P G.'.L.x j.l.g.p.g.g.g.i.u.a.h.g.h.p.g.a.f.a.J a.h.g.l.p.h.a.g.a.! ",
"i.u.a.l.p.a.d.p.v s W.].W.E.`.^.r.`.`.3.5 ! ! h.a.a.j.i.i.u.c.u.u.l.a.p.j.p.! V c.u.u.h.a.a.g.p.! V ",
"z.a.i.g.a.i.i.j.H x g J.U 1.E.0.g 9.2.s N j.! g.g.J ! d.a.p.n.l.u.a.l.p.! p.g.p.n.l.p.p.g.p.J p.j.J ",
"c.p.i.p.g.a.i.p.u.f.: g @ $ h p   a p N j.j.J p.a.z.i.s.! c.g.c.J p.p.j.i.a.! j.j.c.J p.p.h.p.p.! p.",
"v.p.c.s.c.u.J i.x.f.~ 3 6 k & & j $ n g.j.j.a.j.g.a.V ! j.d.d.j.p.k.g.g.V ! d.j.a.k.p.z.g.j.V ! a.j.",
"p.! f.p.p.! i.z.a.i.s.c p.l +.e H M N H b M f.~ p.! ! j.a.! s.i.a.p.~ ! ! a.j.i.p.p.i.a.p.i.J p.z.p.",
"p.p.g.j.j.i.p.a.p.v.a.p.d.z +.e J a.! x 4 z s.g.k.a.! a.i.c.z.p.p.g.j.j.! s.! j.c.p.p.j.d.j.! a.p.p.",
"s.i.c.s.j.g.f.u.p.z.j.! c.l ' e p.p.M 7 6.l c.c.d.g.6 6 W j.j.p.a.k.f.h.a.a.i.j.z.p.p.v.a.j.a.f.i.p.",
"a.p.g.a.p.g.a.p.x.g.j.i.j.z _ 8 M a.> ( 6.> M M n B 7 Y b x.z.p.f.g.g.u.z.p.a.c.j.a.p.a.a.p.l.a.a.c.",
"j.z.j.a.c.a.g.h.a.g.a.c.! ;   % X.G x L.a F L } $.C 7 P.K J ! b b G k.g.a.l.a.g.a.j.c.g.a.l.a.g.g.a.",
"g.g.c.p.g.a.h.f.! i.g.~ D #.% i >Xk x L.5.9X(.I.;X=X&.~.h j Z O.@.C H h.f.g.p.i.a.h.l.l.p.l.a.h.a.J ",
"u.u.a.g.a.f.g.! J f.g.N { yXuXlXdX0 H.)._.jX(.Q.w.T.<XJ.g k , ] }.{.C W l.p.i.V x.p.u.g.a.p.g.a.i.V ",
"l.a.u.l.g.J ! h.J b.x.J w tXsXkX&.$.F.Q._.`.`.~.e.R.!.0.f y A >.*.}.[.1 J p.a.i.n.g.i.a.l.p.! i.j.J ",
"c.a.! p.g.g.p.a.i.c.z.s.> $.uXpXX.M.F./ 2._.^.7.3.Q.r.1._ _ <.=.&.@X[.5 Q s.! j.z.v.! p.p.j.p.a.p.! ",
"v.p.k.s.z.J V ! c.a.j.d.N 0 -X:X0 -.L.N.< Y s = K r.4.u [.[.} +X*XwX[.1 B ! a.j.a.k.i.k.a.z.V V p.j.",
"a.! j.p.p.! ! c.a.! s.V a.2 % % $ F.I +XS   X S N.g 7.u {. X` rXeX*X] 1 ! a.z.i.p.p.i.g.p.p.! p.z.a.",
"i.p.a.a.j.! p.a.p.v.a.p.a.l     K J.$ X X   + X.{ o 3.1._  X%.eXwX.X8 > ! s.p.j.c.p.p.g.s.a.! a.p.p.",
"a.! c.a.k.a.a.i.p.x.a.p.x.z o E 6 ^ x L o     X     a 3.u {.wXwX&X' # n a.a.! g.c.p.p.v.a.j.a.g.i.p.",
"j.p.j.a.p.j.a.p.x.g.j.p.h.H 6 P.H.4 ) K     @ ^ 4 * h h = ] .X.X' # M p.l.p.a.x.j.p.p.j.a.p.j.a.p.c.",
"g.j.h.p.x.p.g.h.p.g.a.l.j.p.b s _.G.1.@       7 D.5.1.p h :.[._ # M l.g.a.l.a.g.a.j.z.g.g.g.a.l.d.a.",
"g.h.c.p.h.a.g.g.u.p.g.h.c.a.J 4 4.r.,.E o   o L p Y 1.4.0.p O & G g.a.l.a.g.p.u.a.j.l.z.p.h.a.g.a.i.",
"p.u.a.g.p.g.g.i.V a.g.i.p.g.p.n g g |.I.^ $ / J.,.<.Q.4.h $ ;.<.y 7 G Q f.u.u.J x.u.J h.f.p.g.f.i.V ",
"a.a.u.l.a.i.! j.i.c.c.a.u.l.h.u.b $ #XT.J.!.W.I.;X=X8.* .   -.N.aXgX=.y c M f.u.n.l.p.f.l.a.J p.d.J ",
"c.a.u.a.g.a.p.s.i.c.z.j.J p.a.g.v d ,XU.7 h T.7XeXOX2.@   X #.uXzXzXxXhXR *.x l J b.! ! p.g.p.a.s.u.",
"v.p.j.a.c.i.V ! j.j.j.d.j.j.l.a.l a T.P.e e K.:X1Xw.>.O   % -XM.$.$.#X9XY.cXdX>X-.Q p.k.a.c.B ! p.j.",
"s.! j.p.p.J ! j.a.! d.V g.p.p.i.c } I.L.` +.H.T.w.>X=X8   X 0   X   + C V.&.0XzXcXP H j.a.i.! p.c.p.",
"p.p.p.a.j.! p.a.p.c.d.p.p.p.j.p.l #.;X,...[.i q.>XtXwX] $             [ yX{ r | aX..N g.a.a.! a.p.p.",
"p.p.v.g.k.a.g.! p.c.g.p.c.d.k.p.x #XtX3XG.'  .U.rXtXwXoXg             w M.C -X{ { t H c.s.z.p.g.! p.",
"d.i.j.a.p.j.a.p.z.d.j.! j.a.a.N p <.rX3XF.+. ./.tXrX X>.=             @ *...aX$X6 n ! j.a.p.z.p.a.c.",
"g.z.g.a.x.a.g.h.a.g.g.z.h.p.x.B - f OX2XH.+. ./.eXXXoXg             q fXaX..lX%Xc l.z.g.g.h.a.h.a.g.",
"l.l.c.p.h.a.g.g.i.p.a.l.c.p.h.g.b . ( Y.D.}  .K.|.w.T @     8 X     8 %X| % >X#.l c.l.l.p.h.a.g.a.! ",
"p.u.a.g.p.g.g.i.V a.g.u.a.g.p.g.! < C B.D.8 q P.I.L @   X { {.+         ; l k j J a.u.h.a.a.h.a.p.V ",
"a.p.p.l.a.! i.d.u.c.c.a.u.l.g.J i.k }.}.y   $ F.7     [ @X&X[ + o   X # N p.a.i.n.f.u.g.h.p.J ! a.J ",
"c.d.i.p.a.a.p.d.i.c.c.j.J p.a.a.p.z @XwX[     $     % +XrX&X` < N 2   2 p.a.p.p.c.c.p.! p.g.p.a.s.! ",
"c.p.j.a.c.i.V i.j.d.j.s.g.g.h.a.N ; { +.O   : 5 5 2 ; [ wX X+.1 p.p.- z V ! p.k.j.k.! j.a.l.J ! i.j.",
"j.! j.p.p.u.J z.a.i.j.! g.a.a.B : X X X   X N d.a.p.N , ` 9 O - p.f.M J J p.z.i.p.s.! j.p.p.J J c.p.",
"p.! a.p.s.! p.d.p.c.a.! a.p.d.! M N M Q W M ! a.d.i.B X         k ! j.p.! d.p.j.j.i.p.p.s.a.! a.a.a.",
"p.p.v.d.c.a.g.! ! c.j.p.k.j.k.a.g.p.! x.j.p.j.j.k.j.J 2 ; : : ; 2 Q j.k.p.f.! g.x.p.a.c.s.c.p.g.! ~ ",
"j.! j.p.p.j.a.! x.g.k.! j.p.p.g.g.i.j.j.x.p.d.s.p.a.g.! f.j.j.p.~ f.p.a.j.p.p.k.g.a.p.j.p.p.k.p.p.c."
};
