/* XPM */
static char *result[] = {
/* columns rows colors chars-per-pixel */
"50 50 190 2 ",
"   c #363204",
".  c #393305",
"X  c #353907",
"o  c #383A07",
"O  c #343608",
"+  c #353B09",
"@  c #3A3C09",
"#  c #403C09",
"$  c #35410C",
"%  c #3B4711",
"&  c #3E6B1B",
"*  c #3B771A",
"=  c #3E791C",
"-  c #3E7C20",
";  c #494506",
":  c #484108",
">  c #4A4312",
",  c #406C1B",
"<  c #45771F",
"1  c #437D1E",
"2  c #4A7C1F",
"3  c #457E21",
"4  c #4B7D21",
"5  c #837A09",
"6  c #45801F",
"7  c #4D841F",
"8  c #57881F",
"9  c #7C9D16",
"0  c #789719",
"q  c #739A1B",
"w  c #7CA11C",
"e  c #468021",
"r  c #4B8424",
"t  c #4F8825",
"y  c #4C8628",
"u  c #4E8828",
"i  c #518525",
"p  c #528B26",
"a  c #5A8D23",
"s  c #548D29",
"d  c #588F2C",
"f  c #579026",
"g  c #5A9126",
"h  c #569029",
"j  c #5A932B",
"k  c #5F992F",
"l  c #5A9130",
"z  c #649524",
"x  c #689627",
"c  c #639A2C",
"v  c #739C25",
"b  c #739B28",
"n  c #6B9434",
"m  c #639D30",
"M  c #6C943B",
"N  c #759A36",
"B  c #749B3C",
"V  c #73A022",
"C  c #7BA422",
"Z  c #7CA52C",
"A  c #7CA33E",
"S  c #6C9742",
"D  c #749D43",
"F  c #7CA544",
"G  c #7DA646",
"H  c #948909",
"J  c #9C900A",
"K  c #86981A",
"L  c #939B19",
"P  c #83A216",
"I  c #82A31B",
"U  c #8BA61A",
"Y  c #8BAA1C",
"T  c #99A619",
"R  c #91AC1C",
"E  c #9EB41A",
"W  c #AFA30A",
"Q  c #B2A60A",
"!  c #BAAC0B",
"~  c #BEBF0F",
"^  c #A3A916",
"/  c #ABAC16",
"(  c #A7AD19",
")  c #B3AD13",
"_  c #B9A21A",
"`  c #AAB615",
"'  c #B5B316",
"]  c #BBB114",
"[  c #BBBD14",
"{  c #BAB719",
"}  c #819F21",
"|  c #85AA27",
" . c #8EAD22",
".. c #95B121",
"X. c #9BB324",
"o. c #AEB326",
"O. c #DCAA0B",
"+. c #CEB00A",
"@. c #DEB80C",
"#. c #C8A915",
"$. c #C4BA11",
"%. c #D9BE11",
"&. c #FBAF08",
"*. c #F6B50D",
"=. c #FAB30B",
"-. c #F8B609",
";. c #F2BC0B",
":. c #E9AE16",
">. c #E3BD14",
",. c #EBB21C",
"<. c #F6B612",
"1. c #F9B411",
"2. c #F4BA14",
"3. c #F8BF14",
"4. c #E7B322",
"5. c #EBB621",
"6. c #BBC115",
"7. c #B7C21B",
"8. c #BAC519",
"9. c #B9C41C",
"0. c #BCC722",
"q. c #C1C10F",
"w. c #D5C90D",
"e. c #DCD30E",
"r. c #D8DD0E",
"t. c #C2C212",
"y. c #CCCE12",
"u. c #DAC414",
"i. c #D4CD13",
"p. c #DBD311",
"a. c #DDDA11",
"s. c #DBD219",
"d. c #E6C60D",
"f. c #EBC20B",
"g. c #E3CB0D",
"h. c #EBCD0C",
"j. c #F3C30C",
"k. c #FBC60E",
"l. c #F6CC0E",
"z. c #FCCC0E",
"x. c #E2D30B",
"c. c #E5DA0B",
"v. c #ECDD0D",
"b. c #F3D20D",
"n. c #FCD40E",
"m. c #F4DC0D",
"M. c #FEDC0D",
"N. c #E9CD10",
"B. c #F2C014",
"V. c #FAC511",
"C. c #F4C911",
"Z. c #FCCC10",
"A. c #E1DA12",
"S. c #E5D418",
"D. c #FCD310",
"F. c #EDE20B",
"G. c #F4E50C",
"H. c #FBE20C",
"J. c #F5ED0D",
"K. c #FDED0D",
"L. c #F1F70F",
"P. c #FCF40D",
"I. c #F4FD0F",
"U. c #EAE915",
"Y. c #F5F714",
"T. c #F4FD10",
"R. c #C1CC24",
"E. c #EBC526",
"W. c #EECC27",
"Q. c #EEC829",
"!. c #EAD020",
"~. c #EACF31",
"^. c #E9D43C",
"/. c #FCD13D",
"(. c #90A646",
"). c #AEB155",
"_. c #BEBC5E",
"`. c #C5BF66",
"'. c #DEBF71",
"]. c #C5C35A",
"[. c #EDD14C",
"{. c #C6C664",
"}. c #E4C66B",
"|. c #FBD668",
" X c #E9D27E",
".X c #FCD77D",
"XX c #FCD87E",
"oX c #FCE16C",
"OX c #EBD482",
"+X c #FED981",
/* pixels */
"s j j e j t p a e t c F B M A B B A B B B (.F M G F D G S D S F F n B N N N n x 4 j j p p j t a t e ",
"p p h 7 p p p t e e _ 4.,.5.E.E.E.Q.Q.W.W.W.!.W.W.[.OXOXOXOX XOX X}.4.,.:.,.:._ a s p p e p p p e 1 ",
"7 6 t f r p t e 3 s #.&.=.=.k.k.k.V.z.z.n.z.z.z.l./..X.X.X.X.X.XXX|.=.&.&.&.&.#.c 6 e f p r s r e = ",
"h t 6 p p 1 e s 3 c #.=.=.-.l.h.h.h.h.h.h.h.h.h.h.S.^.^.^.^.^.^.^.~.f.f.f.f.j.$.c h e t p e 3 r s 6 ",
"l e e e p p e e e j K L _ *.;.f.h.h.h.h.h.h.h.h.h.h.h.h.h.h.h.h.h.h.h.h.e.x.t. .p h 1 r 6 j e r 3 t ",
"l r h s j 1 1 r s t d e K *.*.1.V.Z.Z.Z.Z.Z.Z.Z.Z.Z.z.z.Z.Z.Z.l.l.k.z.l.h.t. .t s d t d p a * 3 p p ",
"r e i e e 3 3 h t 3 r < K &.1.<.V.Z.Z.Z.Z.Z.Z.Z.Z.z.n.n.z.Z.Z.n.n.n.n.n.x.R t e y 3 e r e e 3 t s t ",
"e y p s h i a a a b a i L &.1.2.V.z.Z.Z.Z.D.Z.D.D.z.n.K.n.z.n.m.P.K.P.K.c.U 8 c c a g z d s 3 t 3 p ",
"s e j y d ..a.s.a.A.@.O.:.*.<.2.2.V.l.D.K.K.K.P.K.K.P.P.K.K.K.P.P.P.P.P.c.e.p.a.a.p.a.A...s t t 3 p ",
"p e p s X.S.D.M.n.D.z.k.V.d.2.2.2.Z.Z.M.P.P.P.P.P.P.P.P.P.P.P.P.P.P.P.P.c.h.n.n.n.M.D.M.S.R g p r c ",
"p j d e R.M.Z.Z.z.z.Z.z.b.g.2.2.2.V.Z.m.P.P.P.P.P.P.P.P.P.P.P.P.P.P.P.P.c.[ T T U ^ T u.M.6.i p t t ",
"p p g t { M.%.^ T ( / ( [ g.2.2.3.V.Z.M.P.P.P.P.P.P.P.P.P.P.P.P.P.P.P.P.c.P 3 - r s t { M.8.p p e 1 ",
"e 6 p p 0.M.] 3 < p t 1 9 g.2.2.V.Z.Z.M.P.P.P.P.P.P.P.P.P.P.P.P.P.P.P.P.c.P 3 1 k e 6 ) M.7.p t 3 = ",
"f p e s R.M.] d 6 j k u 9 u.2.;.V.Z.Z.H.P.P.P.P.P.P.P.P.P.P.P.P.P.P.P.P.c.Y r t m s 6 / M.8.6 r p 1 ",
"h y e e 0.H.$.r e j s y 0 g.2.2.V.Z.M.P.P.P.P.P.P.P.P.P.P.P.P.P.P.P.P.P.c.Y - s s h 1 ) M.8.e e 4 e ",
"l e h s 0.M.) r j t s r w g.2.2.V.Z.D.M.P.P.P.P.P.P.P.P.P.P.P.P.P.P.P.P.c.w s s u d r { M.7.3 1 s s ",
"r 3 i 4 9.M.' h t e y - P g.2.2.V.z.z.M.P.P.P.P.P.P.P.P.P.P.P.P.P.P.P.P.c.Y u e r e e ' M.8.e p f e ",
"r r s u 9.M.u.) ^ m r y w u.2.*.3.k.z.n.H.P.P.P.P.P.P.P.P.P.P.P.P.P.P.P.F.P e j c T ( u.M.8.e y e s ",
"u e k r v i.M.M.d.x r 3 I g.*.*.=.k.z.z.n.H.K.P.P.P.P.P.P.P.P.P.P.P.P.P.c.9 6 z o.l.n.M.i.I t t e r ",
"t r p p r w y.i.N.U } q ( g.*.*.<.V.l.z.l.n.H.K.K.P.P.P.P.P.P.P.P.P.P.P.c.P r Y l.b.i.y. .e f p r c ",
"s j h e j t a V v.n.C.C.N.g.-.-.<.V.z.z.z.z.z.z.H.P.P.P.P.P.P.P.P.P.J.J.x.E a U l.v.C p p f t p t t ",
"p p j t p t p z p.D.z.z.b.x.g.g.*.1.2.<.-.V.Z.Z.H.P.P.P.P.P.P.P.P.J.x.x.x.h.f.h.D.c.V f e p p f r 1 ",
"7 6 t p r p p e v s.m.m.m.v.v.x.;.=.1.2.2.2.1.z.n.H.P.P.P.P.P.P.P.J.x.v.v.m.G.m.s.q e f p r s r e * ",
"f t 6 f p 1 e s 6 C | C q V Y w.d.d.;.<.2.<.<.V.l.M.P.P.P.P.P.J.c.c.w.9 q C C q | h e p f e 6 e s 6 ",
"h r e e p p e r e j s y 3 e p Y U q.f.=.=.*.2.V.z.M.P.P.P.P.P.F.$.Y I g e y 3 s s l 3 r e j e r 3 r ",
"l r d s j 1 3 e h r h y d s j e = T h.;.;.;.2.3.z.n.H.H.J.J.G.v.` d p p = 1 s s u d r h p p 1 3 p s ",
"y e t e e e e j t 3 s 3 r e e 3 6 U 6.6.6.[ >.2.j.V.V.C.e.t.[ [ R r e e 3 p s e r e e i e e 3 r s e ",
"e y t u d e e r e k r r t s d e e p r c s a t.B.1.=.2.2.p.Z f r r p d p e t e h h r r p s s e r e s ",
"u 4 k r s p p e e j p e j i p p p e e h t p ~ 2.<.<.;.B.w.v s e p s r s t t 3 p d r r l p s r p e r ",
"p e p p r s t r j p h e p t i t p r j s f 8 [ j.1.C.J.G.p.v d e t i s e h r t g h r r p p e j r r c ",
"p j f r j t p p e p p j d e j t p g e p i z t.;.l.J.I.L.e.v r j g t s p p f t p t h j t p g p f t p ",
"p p j 6 a p p p 6 7 p p g t p p p p e e p g 6.l.G.T.I.L.e.z p p f p t p p p e 6 t f s f e p t f r = ",
"e 6 t p r p p 3 1 p p e e f t p p e 1 t p 7 q.m.J.I.I.L.e.x f e 6 g t t s e 3 1 j 6 e p p t s t 3 * ",
"h t 7 f p 1 3 s 1 k h p e f p 1 3 s e h c g q.m.J.I.I.L.i.Z k p 6 p p 1 3 r p r m p e p p e 3 e s 3 ",
"l r 6 e p t r y e j s s 1 e p p e y e j s j $.b.K.I.I.L.p.Z s d 1 r t f e s 3 p h h 3 e e d e s e r ",
"l e d p j 1 - e s p s r s p j 6 1 6 s a s d 6.j.m.I.I.L.s.b u s r s p p = 1 s s p d r d p p * 3 p s ",
"s 3 p e e 4 e h t e s 3 p e r e 4 h t 6 a 7 q.b.J.I.T.L.p.z s 3 p r r 3 3 p s e y e e i t e 3 r h e ",
"r e p u s e r r r l r e i t d e e r v ` ` ` w.b.P.I.T.L.x.].`._.(.p s r 3 i e s h r r s p t 3 p e s ",
"t e l i d t p e r j p e h s d p p 1 R h.j.b.v.m.J.T.T.L.U.|.+X+X{.d u d r t 3 p s r r h r j r p 3 r ",
"u e p p r s t r j p s 4 s r r t p t R d.-.k.k.H.L.T.T.I.Y.oX+X+X_.p p e j r p j h r r p s e h r r c ",
"p j p t g t p p e p p f h e k 7 a h R d.=.k.k.J.T.T.T.I.Y.oX+X+X].t g t p f e p r j h t s p p f t p ",
"p f j e p p p p e e p p j t p 2 2 2 K +.O.e.r.r.r.r.r.a.a.}.'.}.).r < i t p t 6 t s f f e g t f r 1 ",
"e 6 p a t p p 3 1 p p 6 t f 2 $ o o # : ; ; ; ; ; ; ; ; ; > # > # @ X $ 4 e e 1 j e e f p r p e 3 * ",
"p t e f r 3 3 s 6 j j p 6 p r X   . . . .   .   . . . O . O . . . . . . , i p e c p 7 p f e e r p 3 ",
"j r e e p t e y e j d s 1 e 2 @   5 #.! ! ! ! ! ! ! ! ! ! ! ! ! ! J @ O & u e p j l 3 r t f e p e r ",
"l r h p j e 3 e d u d e s p i + . Q P.K.K.K.K.K.P.K.K.K.K.K.K.K.K.w.# O & 3 s s r d e d t p = 3 p d ",
"u e s e e 3 e h r 3 s 3 s e < X   5 W W W W W W W W W W W W W W W H . . & p d e r e r u i e 3 t h e ",
"e e r s s e r t r j p e r s 4 X                               .       . & u e h h r r i u r 3 r e s ",
"p e j u d i p e e k i e j s 4 % @ X @ @ @ X X + O X X O X + @ X X X X $ < p 3 s d t t j u d r t 3 r ",
"s e s r r s p e h p s e s r r i 4 3 i 4 u < 4 4 3 4 r 3 i i i < 4 4 4 1 p e r j d r e p i r a r r k "
};
