/* XPM */
static char *result[] = {
/* columns rows colors chars-per-pixel */
"50 50 77 1 ",
"  c #29660C",
". c #2D6B0E",
"X c #2E710D",
"o c #31730E",
"O c #316B13",
"+ c #376C1D",
"@ c #396D1E",
"# c #367313",
"$ c #397616",
"% c #3B7C15",
"& c #367319",
"* c #3C741B",
"= c #3C7A19",
"- c #3A6F21",
"; c #3E7421",
": c #3F7C21",
"> c #41771E",
", c #427D1C",
"< c #437C23",
"1 c #497F23",
"2 c #45762D",
"3 c #467B2C",
"4 c #4A7C2C",
"5 c #477730",
"6 c #477830",
"7 c #497A31",
"8 c #47811D",
"9 c #49821F",
"0 c #458126",
"q c #4D8523",
"w c #4E8825",
"e c #478228",
"r c #4D842A",
"t c #4E8A2A",
"y c #508724",
"u c #538A25",
"i c #588F27",
"p c #51852D",
"a c #558D29",
"s c #4A9026",
"d c #4E9F26",
"f c #559222",
"g c #599127",
"h c #5B932B",
"j c #5E9B2C",
"k c #518333",
"l c #578B30",
"z c #598B37",
"x c #5F9830",
"c c #62992B",
"v c #609632",
"b c #649C35",
"n c #679D39",
"m c #67A12D",
"M c #6CA42D",
"N c #6DA92E",
"B c #70A72E",
"V c #70AB2F",
"C c #6BA435",
"Z c #6FA837",
"A c #6CA33D",
"S c #72AB39",
"D c #76B233",
"F c #7AB735",
"G c #7BB835",
"H c #7EBA38",
"J c #7DB643",
"K c #7EB841",
"L c #80BA3D",
"P c #83BD45",
"I c #86BF49",
"U c #86C044",
"Y c #88C147",
"T c #86C048",
"R c #88C248",
"E c #8FC94C",
"W c #90CA4D",
/* pixels */
"uuuuu+ySY0+yyq uMh2@0u<++<wSUu <hm0u0&#Euuuuy@ySP0",
"Rhuy*yySP.<uuu9uMcyy.0qyq#0ucRqwrq-u0&.jRhuu*yySP.",
"SSvqOuZSC 0yuyr<ccuu bvuu=%0aSmu<&1uy<,uSSvyOuZSC ",
"uUSq uPS9 0ryr0*Mcuy PSuuuo&0uGt#OhuyyyuiPSq yPSq ",
"uDM9 uDcq u*;<+uBcuy PSuuu.&0uGt##Eu+<euyDm9.uDmq ",
"uMcuuuBcuuuYjouuuyuy ySIuu.&euNg>oGuu<@1yBcuuuMcuu",
"0Mcyuur<;uuRj%Tau,>49yicRu.$yuNiyyiDuu9.0mcuuur3>y",
"0gguur=><uSCs#SSi11>y<qiSS,,1uc1yuuDiuy 1giuuq==1u",
"000uu0o,uuEa*#uTciy@<>0uuEc1-yu>,9uViur.009yu0o>uu",
"uo%0u0.$uuGiuuuuYSufX9uuuBiuy+yy,ouViuuuyo%0u0.%uu",
"uu%X0W#$uuGguuudDMuyX9yuuBuuq.uuSPXBi>*1uu>o0W$$uu",
"0y,X0L#%uug0<*udNcuuyyr0>Buuq yPSf uuyq@0u%o0LO%uu",
"%0=.0mfuuuw<<<usuuuuuy,=<cyyq SScq ruuw;%0%.0mfuuu",
"X0&.euDmuu0*1yw8*<ugu0=#uu<yy#Ygyq.0ruw0X:&.quDmuu",
".0&.uuNju0.9uy0XyugGuo,uue@>hWiuuuu@0qw0X<&.uuMcu0",
" =&#EuMh<Xyuq<.yuugG0.$hW@yuiB@<ruuw*;00 <&&WuMh<.",
" qyyjTjw0 yuq0 yuugGu.hPa +<0uy-;0uu#&0u qqwhYcr, ",
" 9uuuSSx8 uuw8 wquiDu.jI< ><<qu1<<quXwCy quyuZSv0 ",
" quuyhUSu uhg9 w0ruVu.jYe q<;<yu<@eu$cPy qyuyjPSu.",
" <ruuWhSP yYSq 0@>iVu.jUu quqX<y*.<uYSuu <wuuWjSP ",
"0X,uuWhmN Ehuu0X9uu0u.fDy-yu9 0y*.0Wk2eu0X=uuWhmV ",
"X9whR%0ug2Wkrw0.yuy*0qcm@quuq yu$#Rke<;0X9yhR%0tu3",
".9ujE,%0tAA<:r0 9uu>=rjmOuucM><u99L2<<<<.9ujW8%8aA",
".yucTuX=tE2#%<0 yuuuo=uc.hhSKu@qyaM<+<u0.qgcRuX&tE",
"0ySRuu.&tF7p=o0 ruuuuX=:.WEb@0y*;eu0.&uu0uSYuu.&rG",
"@<cDuu.&<aWh=.0u4AI6u.&aWuu,o0X<;-0e.=uu+0cDuuO#0u",
"P3<ruuwe5Pkayq0uPnkyuwygHuu>.0 ,0<&y.%uuI<<ruuw0kJ",
"Sq<;ruuvJA2uu0;uPn4uuuygDuu%.q 00<#yOqSSS1><ruuvAJ",
"uu,@0uySP7<wq<@uDv2yuuugMuu$.y qw0.u=xUPuu<+eurZJ5",
"uy,X0u0hm2X<%ouuMu@0uuuy<uu,.u qu9 yRC0+au,X0u0hb5",
"uu>.e<*<uu0o&0uuMcy+0yur@euuuuyuuq uRC<.uu$.e0@<uu",
"yu*.e+qyuu0O&0uuuuuy@0ru<X<ry*0*<0qUbt< uu$.1@quuu",
"uZh=eOnvwueO:rur1<1uO2py<X<rw:;;0wuLhu0.uZh*0Obcwu",
"yLSi< PC0u:-<uw0*@@y 4py0.:wy0+<ryyMuu9.yKZh0 PC0y",
"0@bT<.PcX0X2qy0Xyuuu Pn40 0qy0 <ru0u0ruw0@nYe Pjo0",
" qSRuEjuqX<UA3X9uuhWX+nRuEhwy0 0qw@0@<u0 9SYuEju9.",
" qucRhuuq eDb2 UhZK#9ypzRju0>09yCPyX<qu0 qicRhuuq ",
"&>qhUuuuw=rjp3 WlAP uu4kUuyq<;ruZHy.:wteO<qhUuuuy%",
"<;<iGuyyyuu<<: UzAK.uurpDuuuy@<qcDy <ww:<<<iFuyuuu",
"@yuiBu@<ry0-++ uRA50uuuy0yuuuu <hNy :e<-+quiBy-<ru",
"uuuuu+qSU0+ry9.yMg2@1y>@+0uSTu <hM4u0&#Wuuiyy+1SPe",
"Rguy@yuSU.<uuu9uMcyy.<ryrX0tcUquw0@u0&OhIhyy>yySP ",
"SScyOuZSm 0wuuu<Bcuu bvuu%=:aSMw,&<uy,,uSSbyOiSSC ",
"uUSq yUSr 0qyy<*ccuy PSuuuX=euGw&OhuyuuuuPSq yPS9 ",
"uDcy.yDmq w;;0+uMcyu PSuuu.&0iGr&$Wu>;0uuDm9 uDcy ",
"uBcuuuMcyuuRxouuuuuy ySRuu.&0uBi*oLuu>@0uMcuyyBcuy",
"0Mcuuur<*uwRj%Tuu1*<qyicYu.,yuBuuqgDiy9.0Mcuuuy<<y",
"0gguyr=,0uSZw#SSi93<r<qiSS,,1uc19uuDguq 0gguur*,1u",
"000yu0X%uuEa*OuRbgy*<*<uuEh1@yu>,quBiyq.1<qyu0o=uu",
"yo%0ur.%uuGiuuuuYSuyXquuuBiuy+uu,ouBfiuuuo$0yr.%uu"
};
