/* XPM */
static char *result[] = {
/* columns rows colors chars-per-pixel */
"50 50 225 2 ",
"   c #050302",
".  c #0B0202",
"X  c #080C06",
"o  c #0C0C0B",
"O  c #130302",
"+  c #1C0301",
"@  c #170B06",
"#  c #1D0B03",
"$  c #130D0C",
"%  c #0F1508",
"&  c #131405",
"*  c #1A1A07",
"=  c #12130E",
"-  c #1B130B",
";  c #121C0A",
":  c #191C08",
">  c #151414",
",  c #1B1616",
"<  c #151A12",
"1  c #1B1B16",
"2  c #1C1B1B",
"3  c #240201",
"4  c #2B0100",
"5  c #230B02",
"6  c #2C0902",
"7  c #250D0C",
"8  c #340201",
"9  c #3C0201",
"0  c #340C01",
"q  c #3C0B01",
"w  c #34090A",
"e  c #3A0B0C",
"r  c #2C1401",
"t  c #241E08",
"y  c #351401",
"u  c #3D1202",
"i  c #3B1A02",
"p  c #3C0F10",
"a  c #231414",
"s  c #291414",
"d  c #231C1C",
"f  c #2D1B1C",
"g  c #36191A",
"h  c #14220B",
"j  c #162B0E",
"k  c #1B2C0C",
"l  c #1A2315",
"z  c #1A2911",
"x  c #1E241C",
"c  c #1C2C1C",
"v  c #27290B",
"b  c #212B0C",
"n  c #352A09",
"m  c #25360E",
"M  c #29360E",
"N  c #253C0E",
"B  c #343E0F",
"V  c #202A19",
"C  c #39201F",
"Z  c #223513",
"A  c #233717",
"S  c #2C3D11",
"D  c #1F2E21",
"F  c #1F3320",
"G  c #232323",
"H  c #2C2424",
"J  c #252A23",
"K  c #282C25",
"L  c #2C2C2C",
"P  c #3C2525",
"I  c #382A29",
"U  c #213222",
"Y  c #2B3921",
"T  c #283A26",
"R  c #2C352D",
"E  c #2C3D2D",
"W  c #31342E",
"Q  c #31392C",
"!  c #302F30",
"~  c #333333",
"^  c #3B3334",
"/  c #353A34",
"(  c #3B3B3B",
")  c #430100",
"_  c #4A0301",
"`  c #440C01",
"'  c #4C0D00",
"]  c #5B0501",
"[  c #530D01",
"{  c #5A0D02",
"}  c #520D0D",
"|  c #5F0A0A",
" . c #441402",
".. c #4C1301",
"X. c #451B02",
"o. c #4D1B02",
"O. c #531301",
"+. c #5F1001",
"@. c #541A00",
"#. c #5B1B02",
"$. c #441513",
"%. c #571212",
"&. c #660C01",
"*. c #610C0C",
"=. c #710902",
"-. c #631501",
";. c #6E1402",
":. c #621A01",
">. c #6C1A02",
",. c #761602",
"<. c #741E02",
"1. c #4B2303",
"2. c #422A08",
"3. c #552503",
"4. c #5B2303",
"5. c #5F2A04",
"6. c #5F3204",
"7. c #672703",
"8. c #622B04",
"9. c #702504",
"0. c #732B04",
"q. c #653703",
"w. c #6A3804",
"e. c #793B04",
"r. c #452627",
"t. c #412828",
"y. c #453434",
"u. c #433C3C",
"i. c #1F410E",
"p. c #22420E",
"a. c #264313",
"s. c #2C4312",
"d. c #294A14",
"f. c #2C4C15",
"g. c #324817",
"h. c #324D1B",
"j. c #2D5416",
"k. c #2F5118",
"l. c #325517",
"z. c #385616",
"x. c #335C17",
"c. c #33541B",
"v. c #355B1A",
"b. c #3A5D1B",
"n. c #336017",
"m. c #36641A",
"M. c #3A651B",
"N. c #3C6C1C",
"B. c #3C731B",
"V. c #3E7A1C",
"C. c #2B412D",
"Z. c #29492B",
"A. c #314025",
"S. c #374928",
"D. c #355A28",
"F. c #2F4631",
"G. c #334135",
"H. c #314934",
"J. c #364638",
"K. c #3B433C",
"L. c #3B4C3D",
"P. c #2E5031",
"I. c #375639",
"U. c #3C6020",
"Y. c #3B603E",
"T. c #416D1E",
"R. c #41741E",
"E. c #437D1F",
"W. c #447420",
"Q. c #497724",
"!. c #457E21",
"~. c #497B22",
"^. c #3E3C40",
"/. c #3F4040",
"(. c #3F5141",
"). c #444444",
"_. c #474846",
"`. c #4C4C4C",
"'. c #455747",
"]. c #4B5C4C",
"[. c #4F4F50",
"{. c #535353",
"}. c #545D54",
"|. c #5B5B5B",
" X c #436245",
".X c #476049",
"XX c #4B644D",
"oX c #5B7D42",
"OX c #4F6651",
"+X c #5C665C",
"@X c #636464",
"#X c #626A63",
"$X c #6A6A6A",
"%X c #810E03",
"&X c #841403",
"*X c #841B03",
"=X c #842404",
"-X c #852B04",
";X c #8A3905",
":X c #884706",
">X c #45801F",
",X c #468121",
"<X c #4B8423",
"1X c #4F8824",
"2X c #4E8629",
"3X c #4F8828",
"4X c #508625",
"5X c #528B26",
"6X c #50812A",
"7X c #548C29",
"8X c #588E2D",
"9X c #569027",
"0X c #589126",
"qX c #579129",
"wX c #5A932B",
"eX c #5F982D",
"rX c #639C30",
"tX c #898989",
"yX c #9B9A9B",
"uX c #ACABAC",
"iX c #B7B7B7",
"pX c gray81",
"aX c #D8D8D8",
"sX c #E7E7E7",
"dX c #F4F4F4",
/* pixels */
"1XwXwX<XwX5X1X0X,X1X1XeXeX,X0X4X4X0X>X4X<XwXwX1X7X7X1X9X1X1X,XwXwX5X1X0X1X7X4X1X>X0XeX9X1X0X<X5X5X>X",
"1X5X9X1X4X4X0X>X,X,X5X1X9X1X1X1X9X1X>X>X5X5X9X7X>X5X5X5X~.E.5X5X5X9X<X5X5X5X,XE.5X5X1X9X>X5X5X7X4X>X",
"1X>X<X9X1X4X5X<XV.1XqX,X>X9X1X<X5X,X>X<X7Xv.!.0XR.W.7X<X>X>XwX>XE.9X5X<X7X,X,XE.eX>X>X5X5X1X7X<X>XE.",
"0X5X>X5X5XE.>X7X,XqXeX7X>X5X9X>X,X1X1X5XU.Q l.~.A.S N.3X1X1XrX0X,X1X9X,XE.1X5X,XrXqX<X<X7X<XE.<X7X>X",
"7X7X!.<X5X5X,X<X,XwX7X7XE.1X4X7X,X<X!.6XA.^.d.T.J / l.2X!.qX5X8X!.<X<X0X<X<X!.5X9XwX,X<X<XqX,X<X,X,X",
"8X<X7X3X0X>XE.,XwX<X7X3X5X7X0X,XV.!.wXv.).( c.Q.V `.T V.qX1X3X7X<X8X5X5XB.E.5X5X<X8X,XwX1X9XV.!.5X7X",
"3X!.4X<X,X!.!.0X<X,X<X!.<X<X<X!.!.qXW.T _.l z.n.Z ^ /.v.7X,X2X,X,X<X<X,X!.1X7X1X<X,X,X<X<X!.!.<XqX1X",
"<X<X3X7X8X<X<X<X,XeX5X<X4X7X8X<X,X<Xk.( ~ > W / G 2 _.A.B.qXwX<X2X7X7X7X!.1XE.7XeX<X2X7X7X7X!.2X,X,X",
"3X!.wX2X5X5X5X,X<X9X7X~.9X7X4X5X1XW.T `.d _.$X$X@XG ( u.v.7X7X<X<X8X<X7X1X5XE.7X7X<X,XwX1X7X1X5X,X<X",
"qX<X7X<X5X1X5X<XqX7X9X<X5X4X7X1XqXg./.( ^ |.$X$X$X).R `.Y 3X7X<X<X7X7X1XqX1X4XwX0X4X1X5X5X>X7X4X1XeX",
"5X0X0X<XwX~.s.s.s.s.S z.4XE.T.N.5Xd.^.).P t.|.@X).P y._.V E.<Xb.7X~.T.s.S g.N s.N.0XwX7X4X0X1X5X4X1X",
"1X7X0X1X4XE.v 8 o.:.;.4.n d.; M.7Xa.! t.` 9 P y.e ) p ( l B.<Xk N B X.>.-.@.` 5 M.7X9X0X>X7X1X7X1X!.",
"1XE.1X5X1X5Xb.# 8  .X.` u  .n f.<Xa.H 6  .7...q 4.#.4 C 1 B.T.M X.u q  .X.0 6 b wX<XE.5X5X1X5X1X!.V.",
"qX5X>X7X5XE.n.# i ..{ 8.#.` ` X.B Z H 3 4 ..` q O.q + C l s.2.`  .O.8.#.[ X.6 N rX9X>X4X7X<XE.,X7XE.",
"7X3X,X,X4XqXB.b 4 u 3.O.#.1.`  .6   d s 3 8 4 3 8 4 5 f o + )  ...3.[ 3.X.0 O b.qX8X>X1X,XqX<X<X<X,X",
"8X<X7X7X0X>Xj.O 3 4 y u _ _  .e H   X f 7 + 4 3 4 + f o . u u  ._ _ ` i 8 3 + Z <X8X1X7X5XqXV.!.<X7X",
"3XW.4X<X<XE.R.M 8 O.[ O.,.*X>.f {./.! , o   8 ` O . 5 . . 0 #.0.=X&X>.[ O._ # M.<X<X,X1X<X,XE.<XqX<X",
"1X<X5X5X7X,X1Xs.8 ..[ &.-X-X[ `.$X|.[.).2 y 7.e.o.i ..9 4 O.-X%X*X;X,.O.[  .# ~.wX<X<X5X3X7X,X<X,X<X",
"3X<X7X4X7X7X5Xd.4 ` O.O.<.=.g |.{.{.$X@XI 8.:X:X;X#.) _ ) 4 :.*X-X9.@.`  .8 * ~.qX2X<XwX1X7X4X5X,X<X",
"qX,X5X1X4X5X9XR.* 9 _ ) #.7.d 2 $ 2 ( /./ a w.:X4.) ) 8 ) q ' *X&.7 a , - + l.wX7X1X<X7X9X>X0X4X<XeX",
"5XwXqX<X0X<X7X7X* ` ' ' >.=._ + ` r O $ 7 + o.0.9 ) 4 O 4.X._ &X.., L ! ,   x.5X1X7X0X5X5XqX>X0X5X1X",
"1X5X0X1X5X5X7X>X* 9 O.O.:.,.{ 9 3. .9 > I 9 ' @.8 ) 4   3.8 X.-X,.6 > > O + v.>X>X7X9X0X<X7X1X7X1XE.",
"4X>X1X5X1X1X7XW.: 8 _ ' +.=X@.o.o. .`   8 _ 7.e.+.) .   w ..8 ` ..9 $ = 4 3 v.E.eX>X>X5X4X1X7X4X,XV.",
"9X1X>X9X5XE.,X5Xl.3 _ @.#.] + 1.0 8 9   f %.7.0.[ ) . O 4 #.:.4.5.q.w.e.r N <X,XrX9X<X1X9X>X>X,X7XE.",
"qX1X!.<X5X5X<X3Xm.# ..[ @.O.$ d $   + & V r.) ) _ 8 & + { u ..3.4.6.q.q.v ~.,X1XwX8X,X,X<X7X<X<X<X,X",
"8X3X7X2X9X>XV.,XQ.5 ) @.' 5 L [.L r q b Z g O.#._ 5 i.+ <.9.*   3 O $ > h k.j j.<XwX,X8X1X0XE.!.<X7X",
"3XV.7X<X<X,X!.0XR.# ' #._ a ).^.L ` ) k b e _ ' _ 5 a.# =.{ - G a $ s s o 1 G > M.2X,X4X<X,X!.,XqX<X",
"1X<X1X1X7X,X,X7XM.# ` O.O.- P w a q q % & ) ) 8 ) 3 h + &._ > ^ ! L } | L ! ( , m.<X<X5X2X7X,X<X<X3X",
"5X,XwX<X7X1X5X,XM.# ) O...+ 8 ) 8 4 3 O 4 ) 9 9 _ 8 O + ' -.6 2 2 > } | > > G b ~.<X<XeX4X0X1X5X,X,X",
"qX~.7X1X<X7X7X<X6Xv 8 ' O.3 4 8 3 3 +   8 ) 9 9 ) 9 O O ` :.9 $ o   } | X o $ k.7X5X<X7X4X>X9X1X<XeX",
"5XqXqX1X0X1X5X9X1Xf.3 [ o.3 0 8 6 r d ~ $.) 8 8 8 ) I L 7 @.) $ G L %.*.H L ; E.5X7X7X5X7X7X1X7X1X5X",
"1X7X0X1X7X4X5X5X,Xp.3 ' O.4 v v 0 ..a ( u.e @ h 3 r.u.! 6 O.8 O 2 2 } | 2 2 = B.1X7X7X0X>X9X1X5X1X,X",
"1X>X1X5X<X1X7X!.E.m.t 9 ) 5 v.k 8 8 d L u.p N d.+ y.>   4 ) 3 k X   } |   X Z B.wX>X,X5X1X<X7X1X!.V.",
"7X1X>X9X5X!.!.7X<X7Xg.4 8 b 4Xh 8 8 a /.u.e N Z ^ u.L   4 ) # a.= 2 } | 2 o M.,XrX7X<X1X9X<X,X,X7XE.",
"7X5XE.>X5X5X!.7XE.wX<XM t N.4Xg.6 4 : X ^ p m h.).{.! % 5 4 b U.= G } *.G > l.5XwXwX,X,X1X5X1X<X<X,X",
"8X4X7X7XqX<XV.,X7X5X7X~.R.7X9X1XN M M.2 ( I h.Q.V `.l x.b.M T.2Xz   } | X h W.7X4XwX<XqX1XwXE.W.<X8X",
"7X!.7X<X<X~.!.7X3X!.3X!.7X<X<XE.W.1X!.Y [.).h.T.J {.A <X8XW.3XN.; > %.| > > M.1X<X<X,X7X,X<X!.,XwX<X",
"1X,X<X<X7X,X,X1X,XqX7X!.1X1X7X,X,X1X<XM.^ ( f.T.J [.A ~.,XqXqXn.> / %.*.~ > x.7XqX<X<X<X1X1X,X<X<X<X",
"<X<XwX7X8X1X7X,X,XwX7X<XwX7X7X7X1X<X,Xl.( `.c.h.( `.R d.,X7XwXM.< ! %.*.L < n.5XwX2X<XeX2XqX<X5X!.,X",
"wX!.7X<X<X5X1X<X7X7X0X,X4X4X<X4X7X<X7Xb.( ).g.A G G 2 Z 3XqXqX<Xa.> } *.> Z 2XwX5X2X,X7X<X<XqX1X<XeX",
"5X9X0X4XeX>X5X0X4X7X5X9X9X1X0X1X7X0XT.Y _.^.a.z 2 2 2 V n.9X8XQ.c.> %.*.$ h.oX8X5X5XqX5X5X7X5X7X1X5X",
"1X9XeX>X9X4X5X7X>X>X4X7XwX1X5X4Xn.x.k G L G o {.aXsXsXyXc f.D.G.S.= w 9 % S./ m.<X9X7X0X,X0X>X5X1X,X",
"1X>X4X5X4X4X7X,XE.1X5XR.E.Q.d.a.J G D / D D , yXuXdXpXuX).2 c R / U R G G c W E d.N.E.5X1X1X0X7X,XV.",
"7X1X>X9X5X>X!.3X,XR.g.l z A Z.H.J.).]..X].P.K tX|.iX$XtX`.C.I.I. XY.}.(.H.P.OX{.2 h ; x.7X1X>X~.5XE.",
"9X7XE.<X5X1X,X2Xa.h E F.[.OXI.'.P.(.].Y.+XL.c uXdXdXsXsX).E |.+X X X XI.L.}.Y.}.K.Z./ x R.5X1X1X2X,X",
"qX<X3X5X0X<X!.B.l '.I.(.+XXX.X.X_.I.OXOX.XI.E $XiXiXuXuX/ H.|.#X X#XXX(.[.$X X.XP.H.'.E R.0XE.E.,X7X",
"7X!.7X<X<X,X!.<Xc /.T W / J.H.G.! F J.G.F.R D L @X|.`.{.D J G.J.C._./ F ~ ).K.C.E K E J !.<XE.>XwX<X",
"1X<X<X<X3X,X~.7Xl.v.j.f.j.l.c.f.f.f.f.v.l.f.f.k.c.k.d.k.f.c.v.f.k.k.c.h.d.k.f.l.v.f.f.z.~.<X!.<X1X<X",
"<X<XwX7X8X<X7X,X,XeX7X<XqXqXwX7X1X<X,XwXqX<X7XqX8X7X1X1X,X7XwX<X2XwX8XqX<X7X,X1XeX<X<XeX3XwX<X7X!.,X",
"8X!.7X<X<X5X5X,X7X5X7X,X5X2X,X7X5X,X7X7XqX<X<X7X<X1X7X<X1XqX7X<X<X7X<X<XqX<X<XqX7X3X<X7X<X<X7X<X<XwX"
};
