/* XPM */
static char *result[] = {
/* columns rows colors chars-per-pixel */
"50 50 214 2 ",
"   c #1B1A2B",
".  c #1C1D2D",
"X  c #1D1A31",
"o  c #24172C",
"O  c #231B2E",
"+  c #291B2D",
"@  c #241C33",
"#  c #241937",
"$  c #2A1D33",
"%  c #321F33",
"&  c #1E202C",
"*  c #23232E",
"=  c #2D242D",
"-  c #33262F",
";  c #242232",
":  c #2B2534",
">  c #262835",
",  c #2C2B35",
"<  c #2C253A",
"1  c #242B3A",
"2  c #2D2A39",
"3  c #322333",
"4  c #392235",
"5  c #352A35",
"6  c #3C2B36",
"7  c #33253A",
"8  c #3E2739",
"9  c #342B3C",
"0  c #3B2C3B",
"q  c #2C3034",
"w  c #2F313C",
"e  c #3E3037",
"r  c #34323C",
"t  c #3C333D",
"y  c #3D393E",
"u  c #422A37",
"i  c #432E3C",
"p  c #43333D",
"a  c #44393D",
"s  c #40443F",
"d  c #352B43",
"f  c #372A46",
"g  c #3B2D43",
"h  c #2C3B41",
"j  c #343345",
"k  c #3B3442",
"l  c #373A45",
"z  c #3C3C43",
"x  c #3D3248",
"c  c #432D40",
"v  c #402D49",
"b  c #433543",
"n  c #4B3643",
"m  c #433C44",
"M  c #4A3C46",
"N  c #413248",
"B  c #463A4A",
"V  c #4A3C4A",
"C  c #513C4B",
"Z  c #493D53",
"A  c #354143",
"S  c #3B4244",
"D  c #3F4B47",
"F  c #3D454A",
"G  c #3A4A4A",
"H  c #3C4D54",
"J  c #434346",
"K  c #4E4146",
"L  c #43434B",
"P  c #4B424C",
"I  c #454B4C",
"U  c #4A484E",
"Y  c #51444D",
"T  c #51494F",
"R  c #444252",
"E  c #4B4552",
"W  c #4A4E55",
"Q  c #4D425B",
"!  c #4C4B5B",
"~  c #5A4554",
"^  c #534C54",
"/  c #5B4E56",
"(  c #524B5B",
")  c #5C4C5C",
"_  c #485457",
"`  c #4C5454",
"'  c #4E5A5A",
"]  c #545455",
"[  c #5A5456",
"{  c #555B57",
"}  c #52535C",
"|  c #5B555A",
" . c #535A5C",
".. c #5C5B5C",
"X. c #63545D",
"o. c #635B5D",
"O. c #685C5E",
"+. c #5D605D",
"@. c #64615D",
"#. c #534E60",
"$. c #575365",
"%. c #5D5C62",
"&. c #585A6A",
"*. c #5C5E70",
"=. c #635564",
"-. c #635D62",
";. c #6A5C63",
":. c #68576A",
">. c #635C6C",
",. c #6B5B69",
"<. c #685C71",
"1. c #5E6366",
"2. c #57616A",
"3. c #5C656B",
"4. c #646264",
"5. c #6B6465",
"6. c #6B6A66",
"7. c #6C656B",
"8. c #62686F",
"9. c #6C6B6B",
"0. c #716967",
"q. c #73656D",
"w. c #736C6D",
"e. c #6D706E",
"r. c #73726D",
"t. c #79726F",
"y. c #666472",
"u. c #696473",
"i. c #6C6B72",
"p. c #67667B",
"a. c #6D6C7B",
"s. c #736572",
"d. c #7A6473",
"f. c #746B74",
"g. c #736D79",
"h. c #7A6D7B",
"j. c #6E7373",
"k. c #6F7875",
"l. c #6D727A",
"z. c #757575",
"x. c #797575",
"c. c #747875",
"v. c #797977",
"b. c #767679",
"n. c #7A757A",
"m. c #76797A",
"M. c #7B797C",
"N. c #816F7C",
"B. c #81757D",
"V. c #807A7F",
"C. c #766B80",
"Z. c #7B6F81",
"A. c #6D7682",
"S. c #747583",
"D. c #7D7483",
"F. c #737C84",
"G. c #7D7B81",
"H. c #7D7689",
"J. c #767E8A",
"K. c #7C7C8A",
"L. c #827683",
"P. c #8A7685",
"I. c #847C84",
"U. c #897C85",
"Y. c #827589",
"T. c #857E8C",
"R. c #8A7D8A",
"E. c #7E8184",
"W. c #79858A",
"Q. c #7C838C",
"!. c #7F8191",
"~. c #7D8B93",
"^. c #848186",
"/. c #898286",
"(. c #85838B",
"). c #8B848C",
"_. c #848A8E",
"`. c #8B898E",
"'. c #91848E",
"]. c #848493",
"[. c #8C8592",
"{. c #858E95",
"}. c #8D8C93",
"|. c #868B99",
" X c #8D8B98",
".X c #928693",
"XX c #998694",
"oX c #938A94",
"OX c #988A95",
"+X c #94879A",
"@X c #988699",
"#X c #938B9A",
"$X c #9A8D9C",
"%X c #889193",
"&X c #839199",
"*X c #8B929A",
"=X c #92959B",
"-X c #94939C",
";X c #9B909C",
":X c #9C8FA0",
">X c #8E98A2",
",X c #9294A3",
"<X c #949AA3",
"1X c #9999A5",
"2X c #9D9EAA",
"3X c #A59EAD",
"4X c #97A4A9",
"5X c #97A4AB",
"6X c #9DA4AD",
"7X c #95B2B3",
"8X c #A1A3A9",
"9X c #A4ABB5",
"0X c #A7A9B6",
"qX c #ADB7C1",
/* pixels */
"$ 0 8 c V w ; @ $ $ 0 l F B j O * @ ; d d @ @ @ > 9 m M r : * O @ > j o $ @ ; 3 i i i u 3 + $ : 3 0 ",
"p.,X].T.T.K.K.H.Y.Y.P.T.!.!.S.$.; #.p.,X[.H.H.H.H.U.I.I.I.9.y.; Q S.,X).H.K.D.Y.P.P.P.R.g.$.; *.C.,X",
"{.>X*X(.(.].(.].).[.).(.(.].(.a.: y.].1XoX).).).].).`.)./.L.Y.7 >.|.-X}.T.).(.).'.R.R.R.I.u.2 W.~.<X",
"6Xm.k.m.n.x.b.b.b.b.n.n.M.n.U.L.0 D.9XS.r.z.x.z.b.z.z.b.x.'.oXN H.<Xl.c.z.z.b.b.b.x.b.x.(.N.0 -X5Xl.",
"oXM.m.x.x.x.b.x.b.z.b.z.x.t.B.q.u d.-XM.M.x.t.z.z.k.c.z.x.n.B.u s.}.m.z.x.z.c.z.b.x.v.z.c.q.6 '.`.b.",
"oXM.b.x.b.b.b.z.b.b.z.b.n.x.t.;.u d.oXx.b.x.z.z.z.c.z.z.x.0.7.6 q.).n.n.z.c.c.b.z.b.b.b.w.-.b /.'.x.",
"}.M.b.b.v.z.z.z.b.z.x.b.x.x.w.[ e f.oXx.x.z.x.z.c.z.b.z.v.4...e 9.).n.c.z.z.c.x.b.z.v.z.5...m U.oXx.",
"oXn.x.b.b.z.b.z.z.z.z.x.x.z.9.{ r l.oXn.x.z.z.z.t.x.x.x.z.4...S i._.b.b.z.v.z.b.z.z.z.z.4.] r I.[.x.",
"'.n.n.m.c.x.b.z.v.z.z.v.x.n.6...J j.oXz.x.x.z.v.r.v.x.x.x...4.J i._.m.b.b.z.c.x.b.b.z.z.5.] r I.[.x.",
"oXB.n.b.b.c.b.z.z.b.b.x.x.n.5.{ z a.oXx.x.z.z.z.r.c.c.x.x.4...m f.).n.b.z.z.z.z.z.z.r.z.4.' I }.).n.",
"[.B.x.b.c.x.b.b.z.b.c.n.x.M.5.[ t g.oXn.7.5.b.x.z.c.z.c.x.5.o.p q.).n.x.b.b.z.z.z.z.z.z.8.' F (.).b.",
"(.I.M.M.z.r.z.9.6.0.6.6.0.w.X.M 7 >.(.M.x.5.9.6.e.0.6.0.0./ C = :.U.B.x.z.6.w.0.6.6.7.0.X.L r M.K./.",
"b. X/.B.x.x.f.4.4...@.+.o.o.~ 4 @ $.G.}.).f.-...o.O.O.O.;.n 4 < #.Y..XB.z.1.+.+...{ ..o.C 8 @ y.G.}.",
": L k p e = ; ; > > S y m 0 3 $ ; < * U P t p = = u u p i : + $ $ 7 k < > & & q D s z 6 % % # 7 7 L ",
"k ! V V m x 9   1 1 H W ^ m b 9 9 j r E V n b m 6 n n n V g 7 d v N Z 7 d X 1 w _ F U m g g 7 9 z ^ ",
"oX+XoXXXoX(.C.< &.J.7X-X}.oX XoX#X X}.oXoXXXoXXXXXXXXXXX.Xn.b..X+X.XoXD.C.@ &.~.4X%X}.oX+XOXOXoXoXoX",
"M.M.L.B.B.(.R.0 G.1XW.G.V.M.G.M.G.M.M.G.V.V.L.V.M.L.V.M.M.4.5.G.V.V.V./.).4 S.>XQ.E.M.G.D.n.V.M.G.M.",
"b.b.b.x.b.M.L.6 n.=Xc.b.v.b.b.z.b.b.z.z.b.c.x.b.b.z.b.r.x.6.6.f.r.r.z./.B.u D.*XG.z.z.c.x.z.z.z.b.b.",
"z.x.x.x.z.c.z.r s.'.M.x.b.z.b.z.b.b.c.c.c.c.c.c.z.k.k.c.x.x.w.4.w.v.c.k.0.i s.).M.b.c.b.x.x.x.x.x.x.",
"x.b.z.b.z.6.%.z f..XM.x.x.z.b.x.z.b.z.z.z.c.z.z.c.c.z.c.r.x.x.z.z.c.e.@.-.J f.).b.c.b.z.x.x.x.x.z.b.",
"x.x.b.z.z.5...J z.}.x.x.n.b.x.x.x.x.t.z.t.z.x.t.z.z.z.z.z.z.v.z.k.c.t.@. .F g.).n.b.b.b.z.b.z.z.x.b.",
"v.z.z.c.t.0...m i._.n.b.b.b.b.b.b.c.x.r.t.t.t.z.r.v.c.m.z.c.v.r.c.t.t.O.} l b./.D.n.b.z.c.b.c.c.x.z.",
"r.4.o.@.-.^ r > $.K.[.I.m.m.m.l.1.i.c.4.@.@.5.+.4.x.x.j.1.c.b.o.4.5.;.J l 1 >.L.).L.m.b.c.j.+.e.r.o.",
"] J M K Y z ; X h ( :.%. . .' ' I _ ' I K Y K S y / ] ` I ` ] P C Y ^ > 2 # x ^ =./ }  .' _ G +.] M ",
"S q 5 u a 9 & . X $ 7 l l A A S A G A A r 9 J * & - y S S S J 3 0 0 B . @ # o + - 5 9 z A A G S y - ",
"F.9X8X#X;X:X,X$X$X:X:X#X}.}.}.9.h #.A.qX0X-X#X XoX}.oX'.G.r > Q.<X0X>X#X#X$X;XOX;X;XoXOXT.7.& 3.~.9X",
"%X%X}./.).I.I.I./.I./.(.(.(.(.f.g >.~.=X X/././.^.).(././.0 : #X*X%X(./././.I.I.I./.(././.h.: S.*X X",
"8XG.S.b.M.b.b.b.b.c.b.m.m.v.v.B.b Z.6Xm.z.b.v.c.c.n.b.M./.b 0 8X}.l.b.z.b.x.b.b.b.b.b.b.(.P.0 [.<Xm.",
" Xn.m.b.c.z.z.c.r.c.c.c.b.z.x.f.p s.-Xb.m.M.b.t.x.b.b.z.M.m 5 OX(.z.b.z.x.r.b.b.b.b.z.b.b.q.0 D. Xm.",
"}.M.b.x.b.r.c.t.c.c.t.z.b.z.t.o.B f.oXx.b.b.b.x.x.x.b.c.5.m z #X(.b.m.b.z.z.z.c.z.c.c.m.z.-.m D.].m.",
"}.M.z.v.z.z.v.t.x.z.b.b.z.z.r.{ z y..Xn.b.b.b.b.x.x.z.r.1.I F }.(.b.n.b.c.c.z.x.b.x.x.z.o. .F S.}.b.",
"}.n.v.z.v.z.z.c.z.z.z.b.z.z.r.] y i.@Xn.x.b.b.b.b.z.b.r.+.J J -X(.b.b.b.b.x.x.x.x.x.f..... .J m.}.n.",
"`.x.x.x.z.z.z.z.z.r.x.v.c.b.z.[ m 7.XXL.f.b.b.c.k.z.z.t.-.p p oX(.n.z.z.z.x.x.x.x.w.0.0.-.| t M.`.x.",
").I.m.c.l.b.c.z.x.x.w.x.w.w.6.W z a.).I.M.x.b.c.z.r.z.0.X.0 9 .XT.G.c.c.9.f.x.z.f.5.o.f.;.~ 8 B.[.M.",
"Y. X(.m.z.b.b.-.q.n.;.O.O.-.| k > $.h.XX).n.n.b.v.@.O.X.n + @ H.T.).b.6.%.%.%.4.1...4.-.V 0 + <.Y.}.",
"9 V n p b r 9 5 3 0 0 a a K t O @ < 9 M V t r 2 w s a p % $ . 9 b m F , : 2 > q z L F b - * * 7 9 V ",
": p i i p 9 d O ; > j t t P B 7 < 7 5 0 m 9 O $ * G F t 4 7 2 g t b W , > . : w F A z t 0 > ; : 0 i ",
"oXB./.OX$XR.H.: ! Q.9X2X#X#X#X+X+X$X@X$X.Xh.g #.l.7X5X+X@X$X+X X$X#X}.K.A.; } ~.6X4XoXoXXXXX$X$X.XB.",
"B.q.x.I.U./.R.9 $.*X&X_.^./.(.^.I.I.V.I.(.L.i =.m.&X_./.U.I.I.I.I.^.^.).Y.= 8.&X%XW.^./.^.P./.n.t.7.",
"0.-.9.x.x.I..Xc >.2XF.c.b.c.z.z.x.x.x.z.V.B.n ;.m.b.b.c.b.b.b.b.x.x.b./.P.4 g.<XE.z.z.z.z.x.f.0.7.5.",
"/.x.v.v.c.b.L.0 =.[.m.z.z.z.z.z.z.z.x.z.z.q.n -.b.c.z.b.z.z.z.z.z.b.b.M.f.5 7.[.M.r.t.c.z.r.@.M./.v.",
"V.z.b.c.b.j.5.V ,.[.b.z.b.c.b.z.z.z.z.c.w.4.m -.z.z.z.z.z.z.z.z.z.x.b.u.4.k s..XL.t.t.c.e.r.^.(.M.x.",
"x.z.b.b.c.6.-.n ,.`.n.b.b.z.b.z.b.z.j.z.w.| L 1.b.b.z.v.b.z.b.x.x.x.x.-.%.l a..XM.v.z.v.6.6.`.V.z.x.",
"z.z.c.c.c.6.o.p =.XXM.b.z.z.z.z.b.c.j.t.w.| G 3.z.z.z.b.c.z.c.x.x.x.b.4. .A i. XM.c.c.t.c.z.v.z.v.z.",
"v.v.c.b.z.6.o.0 | oXM.9.6.b.z.c.x.b.k.t.w.{ G 2.b.b.z.z.z.z.z.b.z.x.x.4. .A i.}.M.c.c.z.v.c.M.b.z.z.",
"t.w.r.r.t.;.X.4 ) oXM.9.5.j.w.w.f.t.r.w.0.T S 2.l.M.v.r.w.z.x.w.r.r.r.X.( l 8._.E.V.x.z.v.c.e.e.e.r.",
"o.o.o.o.o.^ 0 $ Q D.oXI.m.-.%.%.-.-.o.;./ 5 O &.l.XX/.t.@.z.G.....o...a 0 @ W L.oXI.B.x.b.g.4...o.o.",
"r m m M P l @ # d Z ) ` $.L F r r r r b N $ @ j R ) / U m z m r k k m = % @ 9 V / Y Y Y M m r 0 N n ",
"w L L V E F j x x x Z E ! W R 2 ; > 7 Z B f f d x Z E ^ P w 2 @ 7 j Z d g f x N V C n V t 7 ; , r B ",
"S.2X1X X+X X X X+X+X+X X}.}.}.u.< $.S.0X3X X+X+X X+X.XoXoXM.g.o Z K.6X:X$X#XoXoXXXXXXXXXL.y.> &.W.9X"
};
